<svg width="32" height="32" viewBox="0 0 32 32" fill="none" xmlns="http://www.w3.org/2000/svg">
<g clip-path="url(#clip0_103_36)">
<path d="M8.77388 15.4342C8.77388 10.6689 10.3859 5.89329 16.1059 5.89329C21.8232 5.89329 24.1072 10.6689 24.1072 15.4342C24.1072 17.5009 24.4318 21.3333 22 24L18.6666 22.6666C17.3333 22.6666 17.5337 25.3361 16.7739 25.3333C11.0539 25.3333 8.77388 20.1996 8.77388 15.4342ZM21.1059 29.5066L24.1072 32L28.6666 27.3333L25.4406 26C28.5872 23.1466 29.3333 19.4946 29.3333 15.3333C29.3333 7.97863 25.7326 0.666626 16.1046 0.666626C6.47789 0.666626 3.44055 8.07958 3.44055 15.4342C3.44055 22.7876 6.48055 30 16.1072 30C17.9432 30 19.6072 29.9933 21.1046 29.504L21.1059 29.5066Z" fill="#4E54E4"/>
</g>
<defs>
<clipPath id="clip0_103_36">
<rect width="32" height="32" fill="white"/>
</clipPath>
</defs>
</svg>
